<svg width="944" height="604" viewBox="0 0 944 604" fill="none" xmlns="http://www.w3.org/2000/svg">
<path d="M0.141792 86.8706C0.141792 76.0002 8.43751 66.9265 19.2645 65.9547L123.278 56.6189C125.682 56.4031 128.032 55.7743 130.222 54.7602L254.67 -2.84805C257.435 -4.12792 260.445 -4.79086 263.492 -4.79086H663.312C666.019 -4.79086 668.701 -4.26731 671.21 -3.24905L799.128 48.6727C800.817 49.3582 802.588 49.8209 804.396 50.0492L925.63 65.3523C936.128 66.6774 944 75.6059 944 86.187V509.567C944 520.448 935.688 529.527 924.848 530.485L805.33 541.046C802.91 541.259 800.545 541.892 798.341 542.914L671.615 601.7C668.846 602.985 665.83 603.65 662.778 603.65H263.787C260.551 603.65 257.359 602.902 254.459 601.465L136.733 543.096C134.43 541.954 131.938 541.245 129.38 541.003L19.1665 530.59C8.38177 529.571 0.141792 520.516 0.141792 509.683V86.8706Z" fill="#9c0000"/>
</svg>
